<svg xmlns="http://www.w3.org/2000/svg" viewBox="0 0 512 512" role="img" aria-labelledby="title desc">
  <title id="title">Arena lobby logo</title>
  <desc id="desc">Round black and white emblem with a trophy mark and circular caption.</desc>

  <defs>
    <path id="ringTop" d="M 96 256 A 160 160 0 0 1 416 256"/>
    <path id="ringBottom" d="M 416 256 A 160 160 0 0 1 96 256"/>
  </defs>

  <circle cx="256" cy="256" r="248" fill="#000"/>
  <circle cx="256" cy="256" r="226" fill="none" stroke="#fff" stroke-width="14"/>
  <circle cx="256" cy="256" r="192" fill="none" stroke="#fff" stroke-width="3" opacity="0.85"/>

  <text fill="#fff" font-family="Arial, sans-serif" font-size="25" letter-spacing="1.6">
    <textPath href="#ringTop" startOffset="50%" text-anchor="middle">Pracownia Informatyczna i AI</textPath>
  </text>
  <text fill="#fff" font-family="Arial, sans-serif" font-size="22" letter-spacing="1.2">
    <textPath href="#ringBottom" startOffset="50%" text-anchor="middle">Mikolaj Wojcik</textPath>
  </text>

  <g fill="none" stroke="#fff" stroke-linecap="round" stroke-linejoin="round">
    <path d="M 220 178 L 292 178 L 282 252 L 230 252 Z" fill="#fff" stroke="none"/>
    <rect x="247" y="252" width="18" height="66" fill="#fff" stroke="none"/>
    <rect x="214" y="318" width="84" height="14" fill="#fff" stroke="none"/>

    <path d="M 220 190 C 184 186 176 214 196 230 C 210 242 228 236 232 224" stroke-width="10"/>
    <path d="M 292 190 C 328 186 336 214 316 230 C 302 242 284 236 280 224" stroke-width="10"/>

    <path d="M 208 330 C 168 352 160 392 190 406 C 226 422 250 388 244 360" stroke-width="9"/>
    <path d="M 304 330 C 344 352 352 392 322 406 C 286 422 262 388 268 360" stroke-width="9"/>
  </g>
</svg>
